<svg xmlns="http://www.w3.org/2000/svg" width="500" height="500" style="width:100%;height:100%;transform:translate3d(0,0,0);content-visibility:visible" viewBox="0 0 500 500"><defs><clipPath id="j"><path d="M0 0h500v500H0z"/></clipPath><clipPath id="x"><path d="M0 0h500v500H0z"/></clipPath><clipPath id="w"><path d="M0 0h500v500H0z"/></clipPath><clipPath id="v"><path d="M0 0h500v500H0z"/></clipPath><clipPath id="s"><path d="M0 0h500v500H0z"/></clipPath><clipPath id="q"><path d="M0 0h500v500H0z"/></clipPath><clipPath id="p"><path d="M0 0h500v500H0z"/></clipPath><clipPath id="o"><path d="M0 0h500v500H0z"/></clipPath><clipPath id="m"><path d="M0 0h500v500H0z"/></clipPath><clipPath id="k"><path d="M0 0h500v500H0z"/></clipPath><mask id="u" mask-type="alpha"><g filter="url(#a)"><path fill="#fff" d="M0 0h500v500H0z" opacity="0"/><use xmlns:ns1="http://www.w3.org/1999/xlink" ns1:href="#b"/></g></mask><mask id="t" mask-type="alpha"><g filter="url(#c)"><path fill="#fff" d="M0 0h500v500H0z" opacity="0"/><use xmlns:ns2="http://www.w3.org/1999/xlink" ns2:href="#d"/></g></mask><mask id="r" mask-type="alpha"><g filter="url(#e)"><path fill="#fff" d="M0 0h500v500H0z" opacity="0"/><use xmlns:ns3="http://www.w3.org/1999/xlink" ns3:href="#f"/></g></mask><mask id="n" mask-type="alpha"><use xmlns:ns4="http://www.w3.org/1999/xlink" ns4:href="#g"/></mask><mask id="l" mask-type="alpha"><g filter="url(#h)"><path fill="#fff" d="M0 0h500v500H0z" opacity="0"/><use xmlns:ns5="http://www.w3.org/1999/xlink" ns5:href="#i"/></g></mask><filter id="a" width="100%" height="100%" x="0%" y="0%" filterUnits="objectBoundingBox"><feComponentTransfer in="SourceGraphic"><feFuncA tableValues="1.0 0.0" type="table"/></feComponentTransfer></filter><filter id="c" width="100%" height="100%" x="0%" y="0%" filterUnits="objectBoundingBox"><feComponentTransfer in="SourceGraphic"><feFuncA tableValues="1.0 0.0" type="table"/></feComponentTransfer></filter><filter id="e" width="100%" height="100%" x="0%" y="0%" filterUnits="objectBoundingBox"><feComponentTransfer in="SourceGraphic"><feFuncA tableValues="1.0 0.0" type="table"/></feComponentTransfer></filter><filter id="h" width="100%" height="100%" x="0%" y="0%" filterUnits="objectBoundingBox"><feComponentTransfer in="SourceGraphic"><feFuncA tableValues="1.0 0.0" type="table"/></feComponentTransfer></filter><path id="b" fill-opacity="0" stroke-linecap="round" stroke-linejoin="round" style="display:none"/><path id="d" fill-opacity="0" stroke-linecap="round" stroke-linejoin="round" style="display:none"/><path id="g" fill="red" d="M144.945 14.956c19.992-19.992 30.034-46.214 30.034-72.394 0-26.222-10.042-52.444-30.034-72.436-17.063-17.08-38.65-26.873-60.907-29.376-29.9-3.363-60.994 6.43-83.919 29.376l-.123.122-.126-.122c-19.992-19.992-46.214-30.034-72.394-30.034-26.222 0-52.44 10.042-72.432 30.034-40.029 39.988-40.029 104.842 0 144.83L-.004 159.908 144.945 14.956z" style="display:block" transform="translate(250 250)"/><path id="i" style="display:none"/><g id="f" style="display:none"><path/><path fill-opacity="0" stroke-linecap="round" stroke-linejoin="round"/><path/><path fill-opacity="0" stroke-linecap="round" stroke-linejoin="round"/></g></defs><g clip-path="url(#j)"><g clip-path="url(#k)" opacity="0" style="display:block"><g mask="url(#l)" style="display:block"><path fill="none" stroke="#121330" stroke-linecap="round" stroke-linejoin="round" stroke-width="12" d="M394.945 264.956c19.992-19.992 30.034-46.214 30.034-72.394 0-26.222-10.042-52.444-30.034-72.436-17.063-17.08-38.65-26.873-60.907-29.376-29.9-3.363-60.994 6.43-83.919 29.376l-.123.122-.126-.122c-19.992-19.992-46.214-30.034-72.394-30.034-26.222 0-52.44 10.042-72.432 30.034-40.029 39.988-40.029 104.842 0 144.83l144.952 144.952 144.949-144.952z"/></g><path fill="none" style="display:none"/></g><g clip-path="url(#m)" opacity="0" style="display:block"><g mask="url(#n)" style="display:block"><path fill="none" stroke="#121330" stroke-linecap="round" stroke-linejoin="round" stroke-width="12" d="M68 40v428h-483V40H68z"/><path fill="#121330" d="M68 40v428h-483V40H68z"/></g><path fill="none" stroke="#121330" stroke-linecap="round" stroke-linejoin="round" stroke-width="12" d="M144.945 14.956c19.992-19.992 30.034-46.214 30.034-72.394 0-26.222-10.042-52.444-30.034-72.436-17.063-17.08-38.65-26.873-60.907-29.376-29.9-3.363-60.994 6.43-83.919 29.376l-.123.122-.126-.122c-19.992-19.992-46.214-30.034-72.394-30.034-26.222 0-52.44 10.042-72.432 30.034-40.029 39.988-40.029 104.842 0 144.83L-.004 159.908 144.945 14.956z" opacity="1" style="display:block" transform="translate(250 250)"/></g><g fill="none" clip-path="url(#o)" opacity="0" style="display:block"><path stroke="#07A889" stroke-linecap="round" stroke-linejoin="round" stroke-width="12" d="M-36.568-124.105c-10.267-5.41-20.84-8.968-30.46-8.968-22.146 0-39.967 5.74-56.86 22.615-12.777 12.763-19.984 26.321-22.181 40.073" opacity="1" style="display:block" transform="translate(250 250)"/><path style="display:none"/><path stroke="#121330" stroke-linecap="round" stroke-linejoin="round" stroke-width="12" d="M144.945 14.956c19.992-19.992 30.034-46.214 30.034-72.394 0-26.222-10.042-52.444-30.034-72.436-17.063-17.08-38.65-26.873-60.907-29.376-29.9-3.363-60.994 6.43-83.919 29.376l-.123.122-.126-.122c-19.992-19.992-46.214-30.034-72.394-30.034-26.222 0-52.44 10.042-72.432 30.034-40.029 39.988-40.029 104.842 0 144.83L-.004 159.908 144.945 14.956z" opacity="1" style="display:block" transform="translate(250 250)"/></g><g fill="none" clip-path="url(#p)" opacity="0" style="display:block"><path stroke="#121330" stroke-linecap="round" stroke-linejoin="round" stroke-width="12" d="m-.004-129.752-.126-.122c-19.992-19.992-46.214-30.034-72.394-30.034-26.222 0-52.44 10.042-72.432 30.034-40.029 39.988-40.029 104.842 0 144.83L-.004 159.908" opacity="1" style="display:block" transform="translate(250 250)"/><path stroke="#121330" stroke-linecap="round" stroke-linejoin="round" stroke-width="12" d="M-.004 159.908 144.945 14.956c19.992-19.992 30.034-46.214 30.034-72.394 0-26.222-10.042-52.444-30.034-72.436-17.063-17.08-38.65-26.873-60.907-29.376-29.9-3.363-60.994 6.43-83.919 29.376l-.123.122" opacity="1" style="display:block" transform="translate(250 250)"/><path style="display:none"/></g><g clip-path="url(#q)" opacity="0" style="display:block"><g mask="url(#r)" style="display:block"><path fill="none" stroke="#121330" stroke-linecap="round" stroke-linejoin="round" stroke-width="12" d="M394.945 264.956c19.992-19.992 30.034-46.214 30.034-72.394 0-26.222-10.042-52.444-30.034-72.436-17.063-17.08-38.65-26.873-60.907-29.376-29.9-3.363-60.994 6.43-83.919 29.376l-.123.122-.126-.122c-19.992-19.992-46.214-30.034-72.394-30.034-26.222 0-52.44 10.042-72.432 30.034-40.029 39.988-40.029 104.842 0 144.83l144.952 144.952 144.949-144.952z"/></g><path fill="none" style="display:none"/><path fill="none" style="display:none"/></g><g clip-path="url(#s)" opacity="0" style="display:block"><g mask="url(#t)" style="display:block"><path fill="none" stroke="#07A889" stroke-linecap="round" stroke-linejoin="round" stroke-width="12" d="M213.432 125.895c-10.267-5.41-20.84-8.968-30.46-8.968-22.146 0-39.967 5.74-56.86 22.615-12.777 12.763-19.984 26.321-22.181 40.073"/></g><g mask="url(#u)" style="display:block"><path fill="none" stroke="#121331" stroke-linecap="round" stroke-linejoin="round" stroke-width="12" d="M394.945 264.956c19.992-19.992 30.034-46.214 30.034-72.394 0-26.222-10.042-52.444-30.034-72.436-17.063-17.08-38.65-26.873-60.907-29.376-29.9-3.363-60.994 6.43-83.919 29.376l-.123.122-.126-.122c-19.992-19.992-46.214-30.034-72.394-30.034-26.222 0-52.44 10.042-72.432 30.034-40.029 39.988-40.029 104.842 0 144.83l144.952 144.952 144.949-144.952z"/></g><path fill="none" style="display:none"/></g><g fill="none" stroke-linecap="round" stroke-linejoin="round" stroke-width="12" clip-path="url(#v)" opacity="0" style="display:block"><path stroke="#121330" d="M144.945 14.956c19.992-19.992 30.034-46.214 30.034-72.394 0-26.222-10.042-52.444-30.034-72.436-17.063-17.08-38.65-26.873-60.907-29.376-29.9-3.363-60.994 6.43-83.919 29.376l-.123.122-.126-.122c-19.992-19.992-46.214-30.034-72.394-30.034-26.222 0-52.44 10.042-72.432 30.034-40.029 39.988-40.029 104.842 0 144.83L-.004 159.908 144.945 14.956z" opacity="1" style="display:block" transform="translate(250 250)"/><path stroke="#07A889" d="M-36.568-124.105c-10.267-5.41-20.84-8.968-30.46-8.968-22.146 0-39.967 5.74-56.86 22.615-12.777 12.763-19.984 26.321-22.181 40.073" opacity="1" style="display:block" transform="translate(250 250)"/></g><g fill="none" stroke-linecap="round" stroke-linejoin="round" stroke-width="12" clip-path="url(#w)" style="display:block"><path stroke="#121330" d="M144.945 14.956c19.992-19.992 30.034-46.214 30.034-72.394 0-26.222-10.042-52.444-30.034-72.436-17.063-17.08-38.65-26.873-60.907-29.376-29.9-3.363-60.994 6.43-83.919 29.376l-.123.122-.126-.122c-19.992-19.992-46.214-30.034-72.394-30.034-26.222 0-52.44 10.042-72.432 30.034-40.029 39.988-40.029 104.842 0 144.83L-.004 159.908 144.945 14.956z" style="display:block" transform="translate(250 250)"/><path stroke="#07A889" d="M-36.568-124.105c-10.267-5.41-20.84-8.968-30.46-8.968-22.146 0-39.967 5.74-56.86 22.615-12.777 12.763-19.984 26.321-22.181 40.073" style="display:block" transform="translate(250 250)"/></g><g fill="none" clip-path="url(#x)" opacity="0" style="display:block"><path style="display:none"/><path style="display:none"/></g><path style="display:none"/></g></svg>